<?xml version="1.0" standalone="no"?>
<!DOCTYPE svg PUBLIC "-//W3C//DTD SVG 20010904//EN"
 "http://www.w3.org/TR/2001/REC-SVG-20010904/DTD/svg10.dtd">
<svg version="1.0" xmlns="http://www.w3.org/2000/svg"
 width="80.000000pt" height="80.000000pt" viewBox="0 0 80.000000 80.000000"
 preserveAspectRatio="xMidYMid meet">
<metadata>
Created by potrace 1.14, written by Peter Selinger 2001-2017
</metadata>
<g transform="translate(0.000000,80.000000) scale(0.100000,-0.100000)"
fill="#000000" stroke="none">
<path d="M0 400 l0 -400 400 0 400 0 0 400 0 400 -400 0 -400 0 0 -400z m228
64 l48 -96 45 96 44 96 48 0 47 0 0 -160 0 -160 -30 0 -30 0 0 123 0 122 -53
-107 c-69 -142 -75 -142 -144 -5 l-52 102 0 -117 -1 -118 -30 0 -30 0 0 160 0
160 45 0 45 0 48 -96z m482 -35 l0 -131 -29 -29 c-34 -34 -92 -39 -141 -14
-34 17 -35 22 -15 49 13 18 16 18 47 3 28 -14 36 -14 53 -3 17 12 20 26 23
110 l3 96 -51 0 c-47 0 -50 2 -50 25 0 25 1 25 80 25 l80 0 0 -131z"/>
</g>
</svg>
